<?xml version="1.0" encoding="UTF-8" standalone="no"?>
<svg
   xmlns:dc="http://purl.org/dc/elements/1.1/"
   xmlns:cc="http://creativecommons.org/ns#"
   xmlns:rdf="http://www.w3.org/1999/02/22-rdf-syntax-ns#"
   xmlns:svg="http://www.w3.org/2000/svg"
   xmlns="http://www.w3.org/2000/svg"
   xmlns:sodipodi="http://sodipodi.sourceforge.net/DTD/sodipodi-0.dtd"
   xmlns:inkscape="http://www.inkscape.org/namespaces/inkscape"
   version="1.1"
   id="Layer_1"
   x="0px"
   y="0px"
   width="269.07101"
   height="558.3252"
   viewBox="720.505 865.574 269.07101 558.3252"
   enable-background="new 720.505 865.574 558.325 269.073"
   xml:space="preserve"
   sodipodi:docname="Imperial_fighter_topdown.svg"
   inkscape:version="1.0.1 (3bc2e813f5, 2020-09-07)"><metadata
   id="metadata9"><rdf:RDF><cc:Work
       rdf:about=""><dc:format>image/svg+xml</dc:format><dc:type
         rdf:resource="http://purl.org/dc/dcmitype/StillImage" /></cc:Work></rdf:RDF></metadata><defs
   id="defs7" /><sodipodi:namedview
   pagecolor="#ffffff"
   bordercolor="#666666"
   borderopacity="1"
   objecttolerance="10"
   gridtolerance="10"
   guidetolerance="10"
   inkscape:pageopacity="0"
   inkscape:pageshadow="2"
   inkscape:window-width="979"
   inkscape:window-height="480"
   id="namedview5"
   showgrid="false"
   inkscape:zoom="0.51242752"
   inkscape:cx="134.53551"
   inkscape:cy="279.16361"
   inkscape:window-x="460"
   inkscape:window-y="43"
   inkscape:window-maximized="0"
   inkscape:current-layer="Layer_1" />
<path
   d="m 898.335,1144.9591 c 0,12.845 -6.865,24.139 -16.831,29.011 v 0 h 40.749 c 0,0 13.73,0.222 13.73,11.295 0,0.221 0,0.221 0,0.442 h 53.593 v 4.208 h -55.144 c -7.308,11.516 -37.869,29.011 -58.908,49.385 -23.917,23.254 -46.949,64.889 -46.949,64.889 v 49.828 l -3.322,3.986 c 0,0 6.645,9.301 23.696,13.287 15.503,10.63 16.167,9.966 26.133,12.845 6.644,1.993 10.408,6.644 12.18,9.522 l 34.77,3.766 h -34.104 l -3.544,4.65 5.094,4.872 c 0,0 -7.751,11.294 -23.696,14.395 -30.118,5.758 -77.953,0 -77.953,0 l -2.215,-2.214 -11.073,-2.215 -2.215,-2.215 -11.072,-2.215 -2.215,-2.215 -11.073,-2.214 v -11.517 h 23.032 l 4.872,-5.094 v -10.408 c 0,0 12.18,-7.751 21.703,-11.072 0,0 2.879,-64.667 -7.752,-102.536 -10.63,-38.091 -31.668,-64.666 -31.668,-64.666 l -11.737,-4.872 v -24.14 c 0,0 -9.744,-10.187 -15.945,-15.28 -6.865,-5.758 -9.966,-6.644 -9.966,-13.73 0,-7.086 3.101,-7.973 9.966,-13.73 5.979,-5.094 15.945,-15.281 15.945,-15.281 v -24.139 l 11.737,-4.872 c 0,0 21.038,-26.575 31.668,-64.666 10.631,-38.09099 7.752,-102.53599 7.752,-102.53599 -9.523,-3.322 -21.703,-11.072 -21.703,-11.072 v -10.409 l -4.872,-5.094 h -23.032 v -11.516 l 11.073,-2.215 2.215,-2.214 11.072,-2.215 2.215,-2.215 11.073,-2.215 2.215,-2.215 c 0,0 47.613,-5.758 77.953,0 15.945,3.101 23.696,14.396 23.696,14.396 l -5.094,4.872 3.544,4.65 h 34.104 l -34.77,3.765 c -1.771,2.879 -5.758,7.53 -12.18,9.523 -9.966,2.879 -10.63,2.214 -26.133,12.845 -17.052,3.986 -23.696,13.287 -23.696,13.287 l 3.322,3.986 v 49.828 c 0,0 22.811,41.63499 46.949,64.88799 21.039,20.374 51.601,37.87 58.908,49.386 h 55.144 v 4.207 h -53.593 c 0,0.222 0,0.222 0,0.443 0,11.073 -13.73,11.295 -13.73,11.295 h -40.971 v 0 c 9.966,5.537 17.053,16.61 17.053,29.455 z"
   id="path2" />
</svg>
