<?xml version="1.0" encoding="UTF-8" standalone="no"?>
<svg
   xmlns:dc="http://purl.org/dc/elements/1.1/"
   xmlns:cc="http://creativecommons.org/ns#"
   xmlns:rdf="http://www.w3.org/1999/02/22-rdf-syntax-ns#"
   xmlns:svg="http://www.w3.org/2000/svg"
   xmlns="http://www.w3.org/2000/svg"
   xmlns:sodipodi="http://sodipodi.sourceforge.net/DTD/sodipodi-0.dtd"
   xmlns:inkscape="http://www.inkscape.org/namespaces/inkscape"
   width="167.01453mm"
   height="141.48514mm"
   viewBox="0 0 167.01453 141.48514"
   version="1.1"
   id="svg1627"
   inkscape:version="1.0.1 (3bc2e813f5, 2020-09-07)"
   sodipodi:docname="pay.svg">
  <defs
     id="defs1621" />
  <sodipodi:namedview
     id="base"
     pagecolor="#ffffff"
     bordercolor="#666666"
     borderopacity="1.0"
     inkscape:pageopacity="0.0"
     inkscape:pageshadow="2"
     inkscape:zoom="0.20576923"
     inkscape:cx="-635.41004"
     inkscape:cy="370.55107"
     inkscape:document-units="mm"
     inkscape:current-layer="layer1"
     inkscape:document-rotation="0"
     showgrid="false"
     inkscape:window-width="1258"
     inkscape:window-height="1041"
     inkscape:window-x="208"
     inkscape:window-y="0"
     inkscape:window-maximized="0" />
  <metadata
     id="metadata1624">
    <rdf:RDF>
      <cc:Work
         rdf:about="">
        <dc:format>image/svg+xml</dc:format>
        <dc:type
           rdf:resource="http://purl.org/dc/dcmitype/StillImage" />
        <dc:title></dc:title>
      </cc:Work>
    </rdf:RDF>
  </metadata>
  <g
     inkscape:label="Capa 1"
     inkscape:groupmode="layer"
     id="layer1"
     transform="translate(-273.95224,-50.125031)">
    <g
       id="Layer_2-2"
       transform="matrix(0.26458333,0,0,0.26458333,273.95224,50.124766)"
       style="fill:#000000">
      <path
         fill="#ffffff"
         d="M 461.502,0.001 0.236,250.278 169.97,419.001 l 461.266,-250 z M 28.374,255.517 458.217,22.655 601.036,164.867 171.193,397.501 Z"
         id="path94143"
         style="fill:#000000" />
      <path
         fill="#ffffff"
         d="M 17.104,304.021 0,313.302 l 164.5,163.489 461.269,-250 -12.908,-12.839 -444.449,240.44 z"
         id="path94145"
         style="fill:#000000" />
      <path
         fill="#ffffff"
         d="M 17.104,361.98 0,371.259 l 164.5,163.489 461.269,-250 -12.908,-12.839 -444.45,240.442 z"
         id="path94147"
         style="fill:#000000" />
      <path
         fill="#ffffff"
         d="m 310.736,130.334 c -47,0 -86.151,26.402 -86.151,67.324 0,40.922 40.817,82.342 109.818,82.342 54.481,0 81.666,-25.078 81.666,-66 0,-40.92 -44.333,-83.666 -105.333,-83.666 z m 22.075,141.314 c -61.188,0 -97.385,-36.73 -97.385,-73.021 0,-36.291 34.718,-59.701 76.396,-59.701 54.093,0 93.406,37.905 93.406,74.192 10e-4,36.292 -24.106,58.53 -72.417,58.53 z"
         id="path94149"
         style="fill:#000000" />
      <g
         id="g94155"
         style="fill:#000000">
        <path
           fill="#ffffff"
           d="m 315.02,217.186 6.642,-3.625 c 0.906,0.996 1.503,1.652 1.791,1.969 3.011,3.27 4.835,5.781 5.47,7.536 1.333,3.574 0.055,6.864 -3.841,9.87 -1.465,1.141 -5.554,3.54 -12.265,7.203 -3.008,1.644 -5.198,2.764 -6.572,3.358 -1.374,0.598 -2.852,1.057 -4.434,1.379 -6.115,1.339 -12.086,-0.669 -17.912,-6.027 -2.666,-2.475 -5.367,-5.218 -8.104,-8.229 -5.618,-6.185 -9.12,-10.335 -10.507,-12.458 -2.213,-3.398 -2.322,-6.795 -0.322,-10.189 1.23,-2.13 3.533,-4.25 6.904,-6.361 1.646,-1.033 4.736,-2.789 9.275,-5.268 4.288,-2.34 7.488,-3.746 9.598,-4.223 4.771,-1.078 9.138,-0.075 13.107,3.009 1.451,1.14 3.07,2.694 4.86,4.664 0.207,0.228 0.521,0.597 0.946,1.11 l -6.558,3.58 c -0.831,-0.869 -1.369,-1.438 -1.616,-1.709 -2.979,-3.187 -5.447,-4.803 -7.406,-4.851 -1.711,-0.048 -4.586,1.029 -8.624,3.233 -5.347,2.918 -9.076,5.141 -11.188,6.666 -1.306,0.949 -2.122,1.896 -2.453,2.838 -0.33,0.943 -0.231,2.05 0.298,3.32 0.583,1.375 2.069,3.375 4.455,6.002 8.479,9.332 14.073,14.983 16.785,16.959 1.719,1.298 3.345,1.983 4.875,2.063 1.752,0.095 3.923,-0.498 6.511,-1.773 1.573,-0.79 3.236,-1.665 4.99,-2.623 4.038,-2.204 6.898,-3.927 8.585,-5.167 1.684,-1.241 2.627,-2.324 2.829,-3.247 0.273,-1.305 -0.813,-3.303 -3.263,-5.998 -0.798,-0.884 -1.752,-1.886 -2.856,-3.011 z"
           id="path94151"
           style="fill:#000000" />
        <path
           fill="#ffffff"
           d="m 343.484,222.584 -36.113,-39.744 24.646,-13.453 c 4.344,-2.371 8.188,-3.572 11.535,-3.603 2.924,-0.037 5.715,0.811 8.373,2.543 1.568,1.041 3.291,2.592 5.162,4.651 3.088,3.396 4.787,6.162 5.102,8.295 0.381,2.299 -0.844,4.391 -3.673,6.272 5.017,-2.364 9.709,-1.167 14.079,3.597 l 9.443,10.396 -6.643,3.625 -8.521,-9.375 c -2.222,-2.446 -4.428,-3.749 -6.612,-3.911 -2.184,-0.063 -4.658,0.697 -7.433,2.277 l -16.876,9.211 14.168,15.592 z m -11.909,-24.041 16.208,-8.848 c 3.313,-1.809 5.379,-3.478 6.197,-5.008 0.937,-1.765 0.23,-3.938 -2.113,-6.521 -3.188,-3.51 -5.586,-5.504 -7.188,-5.985 -1.983,-0.576 -4.729,0.092 -8.237,2.006 l -18.046,9.851 z"
           id="path94153"
           style="fill:#000000" />
      </g>
    </g>
  </g>
</svg>
