<?xml version="1.0" encoding="UTF-8" standalone="no"?>
<!-- Created with Inkscape (http://www.inkscape.org/) -->

<svg
   width="130.17607mm"
   height="88.15583mm"
   viewBox="0 0 130.17607 88.15583"
   version="1.1"
   id="svg5"
   inkscape:version="1.1 (c68e22c387, 2021-05-23)"
   sodipodi:docname="roton-teclado.svg"
   xmlns:inkscape="http://www.inkscape.org/namespaces/inkscape"
   xmlns:sodipodi="http://sodipodi.sourceforge.net/DTD/sodipodi-0.dtd"
   xmlns="http://www.w3.org/2000/svg"
   xmlns:svg="http://www.w3.org/2000/svg">
  <sodipodi:namedview
     id="namedview7"
     pagecolor="#ffffff"
     bordercolor="#666666"
     borderopacity="1.0"
     inkscape:pageshadow="2"
     inkscape:pageopacity="0.0"
     inkscape:pagecheckerboard="0"
     inkscape:document-units="mm"
     showgrid="false"
     inkscape:zoom="0.77682379"
     inkscape:cx="249.09124"
     inkscape:cy="292.85921"
     inkscape:window-width="1920"
     inkscape:window-height="1057"
     inkscape:window-x="1912"
     inkscape:window-y="-8"
     inkscape:window-maximized="1"
     inkscape:current-layer="layer1" />
  <defs
     id="defs2" />
  <g
     inkscape:label="Capa 1"
     inkscape:groupmode="layer"
     id="layer1"
     transform="translate(-31.641859,-71.056015)">
    <path
       style="fill:#000000;stroke-width:0.352778"
       d="m 142.13685,158.55163 c -4.5381,-1.56754 -7.98288,-5.11422 -9.58423,-9.86774 -0.59144,-1.75568 -0.72187,-3.03881 -0.72187,-7.10161 v -4.95875 l 0.97014,-0.37028 c 1.99359,-0.76091 6.76866,-1.7343 10.27087,-2.0937 5.07702,-0.521 11.68271,0.25126 17.0694,1.99554 l 1.6757,0.54261 v 4.15683 c 0,2.28626 -0.15501,4.97416 -0.34446,5.97312 -0.71624,3.77674 -3.28756,7.68758 -6.51396,9.90741 -3.47956,2.394 -8.91886,3.16464 -12.82159,1.81657 z M 34.471113,145.90087 c -0.675229,-0.33925 -1.588041,-1.15623 -2.028472,-1.81551 l -0.800782,-1.1987 0.0013,-26.14158 c 0.0013,-25.462969 0.01951,-26.171429 0.702331,-27.291329 0.385557,-0.63237 1.218401,-1.46521 1.850764,-1.85077 1.118554,-0.68199 1.825709,-0.70105 26.060851,-0.70233 l 24.911113,-10e-4 0.595129,-1.55832 c 1.345956,-3.52434 4.906017,-6.17067 10.272835,-7.6362 4.714638,-1.28744 6.573578,-2.64321 7.466848,-5.44576 0.31049,-0.97412 0.4825,-1.06682 2.16169,-1.16496 1.7007,-0.0994 1.82412,-0.0516 1.8209,0.70555 -0.005,1.09667 -1.42838,4.07635 -2.62483,5.49342 -1.36529,1.61705 -3.43559,2.7356 -6.72033,3.63089 -3.758223,1.02434 -6.56505,2.48163 -7.900681,4.10197 -0.602333,0.73074 -1.095149,1.45119 -1.095149,1.60101 0,0.14982 11.15218,0.27299 24.78263,0.27372 24.10696,0.001 24.81399,0.0204 25.93239,0.70233 0.63237,0.38556 1.46521,1.2184 1.85077,1.85077 0.66419,1.08935 0.70108,1.79863 0.70233,13.502359 l 0.001,12.35261 -1.85208,0.65287 c -1.01865,0.35908 -2.53473,1.11072 -3.36908,1.67031 -0.83443,0.55958 -1.58849,1.01743 -1.67578,1.01743 -0.0873,0 -0.15871,-2.70919 -0.15871,-6.02042 0,-3.47539 -0.15438,-6.30887 -0.36518,-6.70277 -0.33423,-0.6245 -0.78192,-0.68237 -5.27926,-0.68237 -4.49734,0 -4.94503,0.0579 -5.27926,0.68237 -0.21752,0.40644 -0.36518,3.59399 -0.36518,7.88282 0,8.80781 -0.24706,8.36815 4.70208,8.36815 1.87649,0 3.4118,0.0594 3.4118,0.13195 0,0.0726 -0.37915,0.82664 -0.84257,1.6757 -0.46342,0.84905 -1.03136,2.13905 -1.26208,2.86665 l -0.41951,1.32292 h -2.24569 c -3.13732,0 -3.34403,0.35377 -3.34403,5.72294 0,5.09385 0.28426,5.56595 3.35138,5.56595 h 1.94028 v 3.52778 3.52777 l -46.831243,-7e-4 c -43.8814,-3.5e-4 -46.90858,-0.0394 -48.05894,-0.61736 z m 14.809635,-7.14321 c 0.625679,-0.62568 0.705555,-1.17592 0.705555,-4.86039 0,-5.84417 0.117537,-5.72294 -5.548475,-5.72294 -5.916471,0 -5.740413,-0.16938 -5.740413,5.52273 0,5.83669 -0.06905,5.76616 5.644444,5.76616 3.762963,0 4.311728,-0.0784 4.938889,-0.70556 z m 16.854836,0.15639 c 0.741165,-0.51913 0.784052,-0.79755 0.784052,-5.09008 0,-3.65773 -0.107819,-4.64873 -0.554365,-5.09528 -0.442341,-0.44234 -1.4094,-0.55436 -4.785692,-0.55436 -2.327229,0 -4.53839,0.16433 -4.91369,0.36519 -0.622236,0.33301 -0.681887,0.77598 -0.676962,5.02708 0.0028,2.56404 0.122032,4.83653 0.264583,5.04997 0.447752,0.67043 1.209386,0.79017 5.207769,0.8188 2.984464,0.0214 4.072812,-0.10002 4.674305,-0.52132 z m 34.219446,0 c 0.73976,-0.51815 0.78405,-0.80058 0.78405,-4.99931 0,-3.64583 -0.10552,-4.56673 -0.58384,-5.09527 -0.54531,-0.60256 -1.434,-0.64514 -13.465976,-0.64514 -11.491894,0 -12.951752,0.063 -13.527267,0.58384 -0.56093,0.50764 -0.645139,1.1727 -0.645139,5.09528 0,4.26207 0.04334,4.54178 0.784053,5.0606 0.673936,0.47204 2.545616,0.54917 13.327058,0.54917 10.781441,0 12.653121,-0.0771 13.327061,-0.54917 z m 17.37274,-0.15639 c 0.18361,-0.29104 0.33627,-2.62702 0.33924,-5.19106 0.005,-4.2511 -0.0547,-4.69407 -0.67696,-5.02708 -0.3753,-0.20086 -2.58646,-0.36519 -4.91369,-0.36519 -3.37629,0 -4.34335,0.11202 -4.78569,0.55436 -0.44655,0.44655 -0.55437,1.43755 -0.55437,5.09528 0,5.85418 -0.14308,5.71962 5.92257,5.56988 3.38497,-0.0836 4.40823,-0.223 4.6689,-0.63619 z M 49.437133,121.39305 c 0.79799,-1.13928 0.793845,-8.79865 -0.0052,-9.59769 -0.448782,-0.44878 -1.454272,-0.55436 -5.279256,-0.55436 -4.310307,0 -4.756933,0.0599 -5.090079,0.68236 -0.200855,0.3753 -0.36519,2.58646 -0.36519,4.91369 0,3.37629 0.112022,4.34335 0.554365,4.78569 0.446544,0.44655 1.437545,0.55437 5.095274,0.55437 4.292531,0 4.570947,-0.0429 5.090079,-0.78406 z m 17.117315,0.10169 c 0.525526,-0.98195 0.476349,-9.29592 -0.05814,-9.83041 -0.587749,-0.58775 -9.501695,-0.58775 -10.089444,0 -0.587749,0.58775 -0.587749,9.50169 0,10.08944 0.286706,0.28671 1.933599,0.42334 5.102867,0.42334 4.265464,0 4.711844,-0.0604 5.044722,-0.68237 z m 16.875188,0.25903 c 0.587749,-0.58775 0.587749,-9.50169 0,-10.08944 -0.286706,-0.28671 -1.9336,-0.42333 -5.102867,-0.42333 -4.265464,0 -4.711844,0.0604 -5.044722,0.68236 -0.200854,0.3753 -0.365189,2.58646 -0.365189,4.91369 0,3.37629 0.112022,4.34335 0.554366,4.78569 0.445897,0.4459 1.432948,0.55437 5.044722,0.55437 3.022131,0 4.628776,-0.13842 4.91369,-0.42334 z m 17.155074,-0.13103 c 0.44235,-0.44234 0.55437,-1.4094 0.55437,-4.78569 0,-2.32723 -0.16433,-4.53839 -0.36519,-4.91369 -0.33318,-0.62255 -0.77983,-0.68236 -5.095274,-0.68236 -5.95643,0 -5.828425,-0.12009 -5.828425,5.46805 0,5.56451 -0.09948,5.46806 5.639252,5.46806 3.657727,0 4.648727,-0.10782 5.095267,-0.55437 z m 17.06437,0.13103 c 0.58775,-0.58775 0.58775,-9.50169 0,-10.08944 -0.58775,-0.58775 -9.5017,-0.58775 -10.08944,0 -0.58775,0.58775 -0.58775,9.50169 0,10.08944 0.28617,0.28618 1.92067,0.42334 5.04472,0.42334 3.12404,0 4.75855,-0.13716 5.04472,-0.42334 z M 49.280748,104.53822 c 0.62716,-0.62716 0.705555,-1.17592 0.705555,-4.938889 0,-3.76296 -0.0784,-4.31173 -0.705555,-4.93889 -0.627161,-0.62716 -1.175926,-0.70555 -4.938889,-0.70555 -5.696952,0 -5.644444,-0.0525 -5.644444,5.64444 0,5.696949 -0.05251,5.644439 5.644444,5.644439 3.762963,0 4.311728,-0.0784 4.938889,-0.70555 z m 16.854836,0.15638 c 0.739758,-0.51814 0.784052,-0.80057 0.784052,-4.999299 0,-5.89711 0.146573,-5.74041 -5.369535,-5.74041 -2.311015,0 -4.508912,0.16433 -4.884212,0.36519 -0.624444,0.33419 -0.682363,0.78185 -0.682363,5.27413 0,4.303029 0.0762,4.953329 0.617361,5.268529 0.339548,0.19777 2.44735,0.36441 4.684003,0.3703 3.122926,0.008 4.248594,-0.11671 4.850694,-0.53844 z m 17.035021,0.18398 c 0.624498,-0.33422 0.682364,-0.78191 0.682364,-5.279249 0,-4.49734 -0.05787,-4.94503 -0.682364,-5.27925 -0.375299,-0.20086 -2.545612,-0.36519 -4.822916,-0.36519 -5.580165,0 -5.430831,-0.15616 -5.430831,5.67911 0,5.717839 -0.10729,5.609769 5.569744,5.609769 2.200903,0 4.308704,-0.16433 4.684003,-0.36519 z m 17.184425,-0.18398 c 0.73976,-0.51814 0.78405,-0.80057 0.78405,-4.999299 0,-5.90807 0.15934,-5.74041 -5.455306,-5.74041 -5.869245,0 -5.657194,-0.21157 -5.657194,5.64444 0,5.833909 -0.183172,5.644439 5.456986,5.644439 3.128464,0 4.271354,-0.12884 4.871464,-0.54917 z m 17.16302,-0.005 c 0.44878,-0.44879 0.55436,-1.45428 0.55436,-5.279259 0,-4.31031 -0.0599,-4.75693 -0.68236,-5.09008 -0.3753,-0.20086 -2.54561,-0.36519 -4.82292,-0.36519 -5.58016,0 -5.43083,-0.15616 -5.43083,5.67911 0,5.733599 -0.12577,5.609769 5.69774,5.609769 3.28385,0 4.24318,-0.11354 4.68401,-0.55436 z m 17.19534,-5.673919 c 0.91442,-0.82755 0.87851,-3.41612 -0.0604,-4.35506 -0.62716,-0.62716 -1.17593,-0.70555 -4.93889,-0.70555 -3.76296,0 -4.31173,0.0784 -4.93889,0.70555 -0.86186,0.86187 -0.94351,3.03106 -0.15639,4.15484 0.51815,0.73976 0.80058,0.78405 4.99931,0.78405 3.64584,0 4.56674,-0.10552 5.09528,-0.58384 z m -2.88264,33.317549 c 0,-6.18344 2.92909,-10.87393 8.38478,-13.42696 1.26403,-0.5915 3.06955,-1.14958 4.01228,-1.24016 l 1.71405,-0.1647 v 1.94742 c 0,1.4056 -0.14723,2.00391 -0.52917,2.15048 -0.40865,0.15681 -0.52917,0.8385 -0.52917,2.99315 0,2.04972 0.14042,2.90664 0.52917,3.22927 0.36054,0.29922 0.52917,1.09993 0.52917,2.51264 v 2.07347 h -1.54129 c -2.58838,0 -9.37299,1.31819 -12.02758,2.33685 -0.45781,0.17568 -0.54224,-0.19983 -0.54224,-2.41146 z m 25.4,1.46666 c -2.0373,-0.53626 -5.01386,-1.08763 -6.61459,-1.22526 l -2.91041,-0.25024 v -2.03174 c 0,-1.37563 0.17088,-2.17357 0.52916,-2.47092 0.38201,-0.31704 0.52917,-1.15592 0.52917,-3.01661 0,-1.82068 -0.15537,-2.7328 -0.52917,-3.1066 -0.33496,-0.33497 -0.52916,-1.20379 -0.52916,-2.36739 v -1.83823 l 1.84896,0.21898 c 3.77164,0.4467 8.19468,3.44926 10.25106,6.95889 0.50383,0.85991 1.16244,2.50963 1.46358,3.66605 0.67839,2.60523 0.74338,6.5632 0.10653,6.48928 -0.24253,-0.0281 -2.10784,-0.48995 -4.14513,-1.02621 z"
       id="path854" />
  </g>
</svg>
